<?xml version="1.0" encoding="UTF-8" standalone="no"?>
<svg width="800" height="1290" viewBox="0 0 800 1290" version="1.1"
     xmlns="http://www.w3.org/2000/svg">
  <defs>
    <!-- Corps orange -->
    <linearGradient id="bodyGrad" x1="0" y1="0" x2="1" y2="0">
      <stop offset="0"    stop-color="#d96b12"/>
      <stop offset="0.12" stop-color="#f07b1a"/>
      <stop offset="0.5"  stop-color="#f4831e"/>
      <stop offset="0.88" stop-color="#f07b1a"/>
      <stop offset="1"    stop-color="#d15f0c"/>
    </linearGradient>
    <linearGradient id="bodyEdge" x1="0" y1="0" x2="0" y2="1">
      <stop offset="0"   stop-color="#ffffff" stop-opacity="0.35"/>
      <stop offset="0.1" stop-color="#ffffff" stop-opacity="0"/>
      <stop offset="0.9" stop-color="#000000" stop-opacity="0"/>
      <stop offset="1"   stop-color="#000000" stop-opacity="0.25"/>
    </linearGradient>

    <!-- Embouts de fixation -->
    <radialGradient id="mountGrad" cx="0.5" cy="0.35" r="0.8">
      <stop offset="0"   stop-color="#5a5a5c"/>
      <stop offset="0.6" stop-color="#3a3a3c"/>
      <stop offset="1"   stop-color="#1c1c1e"/>
    </radialGradient>
    <radialGradient id="screwHole" cx="0.4" cy="0.35" r="0.8">
      <stop offset="0"   stop-color="#cfcfcf"/>
      <stop offset="0.5" stop-color="#8a8a8a"/>
      <stop offset="1"   stop-color="#4a4a4a"/>
    </radialGradient>

    <!-- LED -->
    <radialGradient id="ledGrad" cx="0.4" cy="0.35" r="0.8">
      <stop offset="0"   stop-color="#eaeaea"/>
      <stop offset="0.6" stop-color="#b8b8b8"/>
      <stop offset="1"   stop-color="#8a8a8a"/>
    </radialGradient>

    <!-- Bagues métal des connecteurs -->
    <radialGradient id="metalRing" cx="0.35" cy="0.3" r="0.85">
      <stop offset="0"    stop-color="#f2f2f2"/>
      <stop offset="0.45" stop-color="#c2c2c2"/>
      <stop offset="0.75" stop-color="#8f8f8f"/>
      <stop offset="1"    stop-color="#5c5c5c"/>
    </radialGradient>
    <!-- Fond du logement -->
    <radialGradient id="socket" cx="0.4" cy="0.35" r="0.9">
      <stop offset="0"   stop-color="#4a4a4c"/>
      <stop offset="0.5" stop-color="#8f8f8f"/>
      <stop offset="0.8" stop-color="#c7c7c7"/>
      <stop offset="1"   stop-color="#6a6a6a"/>
    </radialGradient>
    <!-- Inserts -->
    <radialGradient id="insertOrange" cx="0.42" cy="0.35" r="0.85">
      <stop offset="0"   stop-color="#ffb56b"/>
      <stop offset="0.5" stop-color="#f08a24"/>
      <stop offset="1"   stop-color="#c05f0c"/>
    </radialGradient>
    <radialGradient id="insertBlack" cx="0.42" cy="0.35" r="0.85">
      <stop offset="0"   stop-color="#6b6b6b"/>
      <stop offset="0.5" stop-color="#2a2a2a"/>
      <stop offset="1"   stop-color="#050505"/>
    </radialGradient>
    <radialGradient id="insertGrey" cx="0.42" cy="0.35" r="0.85">
      <stop offset="0"   stop-color="#d8d8d8"/>
      <stop offset="0.5" stop-color="#9a9a9a"/>
      <stop offset="1"   stop-color="#5e5e5e"/>
    </radialGradient>
    <!-- Broches laiton (mâle) -->
    <radialGradient id="pinBrass" cx="0.38" cy="0.32" r="0.85">
      <stop offset="0"    stop-color="#fff1b8"/>
      <stop offset="0.45" stop-color="#e6c14f"/>
      <stop offset="0.8"  stop-color="#b8912a"/>
      <stop offset="1"    stop-color="#7d5f16"/>
    </radialGradient>
    <radialGradient id="pinTip" cx="0.4" cy="0.35" r="0.7">
      <stop offset="0"   stop-color="#fffbe6"/>
      <stop offset="0.6" stop-color="#f2d873"/>
      <stop offset="1"   stop-color="#c9a63c"/>
    </radialGradient>
  </defs>

  <!-- ============ CORPS DU MODULE ============ -->
  <g transform="translate(0,-2.13)">
    <rect x="232" y="245" width="322" height="810" rx="46" ry="46" style="fill:url(#bodyGrad)"/>
    <rect x="232" y="245" width="322" height="810" rx="46" ry="46" style="fill:url(#bodyEdge)"/>
    <rect x="232" y="245" width="322" height="810" rx="46" ry="46" fill="none"
          stroke="#b95a0c" stroke-opacity="0.4" stroke-width="1.5"/>
  </g>

  <!-- ============ EMBOUT FIXATION HAUT ============ -->
  <g transform="translate(0,-8)">
    <path d="m 336,250 h 104 a 6,6 0 0 1 6,6 c 0,28 -24,52 -58,52 -34,0 -58,-24 -58,-52 a 6,6 0 0 1 6,-6 z" style="fill:url(#mountGrad)"/>
    <path d="m 336,250 h 104 a 6,6 0 0 1 6,6 c 0,2 -2,4 -4,4 H 334 a 4,4 0 0 1 -4,-4 6,6 0 0 1 6,-6 z" fill="#ffffff" fill-opacity="0.12"/>
    <circle cx="388" cy="283" r="21" style="fill:url(#screwHole)"/>
    <circle cx="388" cy="283" r="21" fill="none" stroke="#2a2a2a" stroke-width="2"/>
    <circle cx="388" cy="283" r="10" fill="#3a3a3a"/>
  </g>

  <!-- ============ LOGO ifm ============ -->
  <text x="258" y="361" font-family="Arial, Helvetica, sans-serif"
        font-weight="800" font-size="46px" fill="#ffffff" letter-spacing="-1">ifm</text>

  <!-- ============ LED de statut ============ -->
  <g>
    <circle cx="356" cy="349" r="9" fill="url(#ledGrad)" stroke="#7a7a7a" stroke-width="1"/>
    <circle cx="390" cy="349" r="9" fill="url(#ledGrad)" stroke="#7a7a7a" stroke-width="1"/>
    <circle cx="424" cy="349" r="9" fill="url(#ledGrad)" stroke="#7a7a7a" stroke-width="1"/>
  </g>

  <!-- ============ MARQUES ") (" ============ -->
  <g id="marks" fill="none" stroke="#2b2b2b" stroke-width="7" stroke-linecap="round">
    <g transform="translate(357.95,445)">
      <path d="m 0,-30 q 5.6,12 6.72,24"/><path d="M 6.72,6 Q 5.6,18 0,30"/>
    </g>
    <g transform="translate(428.05,445) scale(-1,1)">
      <path d="m 0,-30 q 5.6,12 6.72,24"/><path d="M 6.72,6 Q 5.6,18 0,30"/>
    </g>
    <g transform="translate(357.95,616)">
      <path d="m 0,-30 q 5.6,12 6.72,24"/><path d="M 6.72,6 Q 5.6,18 0,30"/>
    </g>
    <g transform="translate(357.95,765)">
      <path d="m 0,-30 q 5.6,12 6.72,24"/><path d="M 6.72,6 Q 5.6,18 0,30"/>
    </g>
    <g transform="translate(428.05,765) scale(-1,1)">
      <path d="m 0,-30 q 5.6,12 6.72,24"/><path d="M 6.72,6 Q 5.6,18 0,30"/>
    </g>
    <g transform="translate(357.95,915)">
      <path d="m 0,-30 q 5.6,12 6.72,24"/><path d="M 6.72,6 Q 5.6,18 0,30"/>
    </g>
    <g transform="translate(428.05,915) scale(-1,1)">
      <path d="m 0,-30 q 5.6,12 6.72,24"/><path d="M 6.72,6 Q 5.6,18 0,30"/>
    </g>
  </g>

  <!-- ============ RANGÉE 1 (Y=445) : connecteurs NOIRS ============ -->
  <g id="row1">
    <g transform="translate(302,445) scale(0.377)">
      <circle r="122" stroke="#5a5a5a" stroke-width="2" style="fill:url(#metalRing)"/>
      <circle r="118" fill="none" stroke="#ffffff" stroke-opacity="0.55" stroke-width="1.5"/>
      <circle r="100" stroke="#6a6a6a" stroke-width="1.5" style="fill:url(#metalRing)"/>
      <circle r="86" style="fill:url(#socket)"/>
      <circle r="86" fill="none" stroke="#3a3a3a" stroke-width="2"/>
      <circle r="70" stroke="#000000" stroke-width="2" style="fill:url(#insertBlack)"/>
      <circle cx="-24" cy="-22" r="11" style="fill:url(#socket)"/><circle cx="-24" cy="-22" r="5" fill="#1a1a1a"/>
      <circle cx="24"  cy="-22" r="11" style="fill:url(#socket)"/><circle cx="24"  cy="-22" r="5" fill="#1a1a1a"/>
      <circle cx="0"   cy="4"   r="11" style="fill:url(#socket)"/><circle cx="0"   cy="4"   r="5" fill="#1a1a1a"/>
      <circle cx="-24" cy="30"  r="11" style="fill:url(#socket)"/><circle cx="-24" cy="30"  r="5" fill="#1a1a1a"/>
      <circle cx="24"  cy="30"  r="11" style="fill:url(#socket)"/><circle cx="24"  cy="30"  r="5" fill="#1a1a1a"/>
    </g>
    <g transform="translate(484,445) scale(0.377)">
      <circle r="122" stroke="#5a5a5a" stroke-width="2" style="fill:url(#metalRing)"/>
      <circle r="118" fill="none" stroke="#ffffff" stroke-opacity="0.55" stroke-width="1.5"/>
      <circle r="100" stroke="#6a6a6a" stroke-width="1.5" style="fill:url(#metalRing)"/>
      <circle r="86" style="fill:url(#socket)"/>
      <circle r="86" fill="none" stroke="#3a3a3a" stroke-width="2"/>
      <circle r="70" stroke="#000000" stroke-width="2" style="fill:url(#insertBlack)"/>
      <circle cx="-24" cy="-22" r="11" style="fill:url(#socket)"/><circle cx="-24" cy="-22" r="5" fill="#1a1a1a"/>
      <circle cx="24"  cy="-22" r="11" style="fill:url(#socket)"/><circle cx="24"  cy="-22" r="5" fill="#1a1a1a"/>
      <circle cx="0"   cy="4"   r="11" style="fill:url(#socket)"/><circle cx="0"   cy="4"   r="5" fill="#1a1a1a"/>
      <circle cx="-24" cy="30"  r="11" style="fill:url(#socket)"/><circle cx="-24" cy="30"  r="5" fill="#1a1a1a"/>
      <circle cx="24"  cy="30"  r="11" style="fill:url(#socket)"/><circle cx="24"  cy="30"  r="5" fill="#1a1a1a"/>
    </g>
  </g>

  <!-- ============ CONNECTEUR CENTRAL GRIS MÂLE (Y=616) ============ -->
  <g id="connGrey" transform="translate(302,616) scale(0.377)">
    <circle r="122" stroke="#5a5a5a" stroke-width="2" style="fill:url(#metalRing)"/>
    <circle r="118" fill="none" stroke="#ffffff" stroke-opacity="0.55" stroke-width="1.5"/>
    <circle r="100" stroke="#6a6a6a" stroke-width="1.5" style="fill:url(#metalRing)"/>
    <circle r="86" style="fill:url(#socket)"/>
    <circle r="86" fill="none" stroke="#3a3a3a" stroke-width="2"/>
    <circle r="70" stroke="#4a4a4a" stroke-width="2" style="fill:url(#insertGrey)"/>
    <!-- 4 broches laiton mâles -->
    <g transform="translate(-24,-22)">
      <ellipse cx="0" cy="3" rx="13" ry="12" fill="#000000" fill-opacity="0.35"/>
      <circle r="12" stroke="#6e5413" stroke-width="1" style="fill:url(#pinBrass)"/>
      <circle r="7" style="fill:url(#pinTip)"/><circle r="2.5" fill="#8a6d1e"/>
      <ellipse cx="-3" cy="-4" rx="3.5" ry="2" fill="#ffffff" fill-opacity="0.7"/>
    </g>
    <g transform="translate(24,-22)">
      <ellipse cx="0" cy="3" rx="13" ry="12" fill="#000000" fill-opacity="0.35"/>
      <circle r="12" stroke="#6e5413" stroke-width="1" style="fill:url(#pinBrass)"/>
      <circle r="7" style="fill:url(#pinTip)"/><circle r="2.5" fill="#8a6d1e"/>
      <ellipse cx="-3" cy="-4" rx="3.5" ry="2" fill="#ffffff" fill-opacity="0.7"/>
    </g>
    <g transform="translate(-24,30)">
      <ellipse cx="0" cy="3" rx="13" ry="12" fill="#000000" fill-opacity="0.35"/>
      <circle r="12" stroke="#6e5413" stroke-width="1" style="fill:url(#pinBrass)"/>
      <circle r="7" style="fill:url(#pinTip)"/><circle r="2.5" fill="#8a6d1e"/>
      <ellipse cx="-3" cy="-4" rx="3.5" ry="2" fill="#ffffff" fill-opacity="0.7"/>
    </g>
    <g transform="translate(24,30)">
      <ellipse cx="0" cy="3" rx="13" ry="12" fill="#000000" fill-opacity="0.35"/>
      <circle r="12" stroke="#6e5413" stroke-width="1" style="fill:url(#pinBrass)"/>
      <circle r="7" style="fill:url(#pinTip)"/><circle r="2.5" fill="#8a6d1e"/>
      <ellipse cx="-3" cy="-4" rx="3.5" ry="2" fill="#ffffff" fill-opacity="0.7"/>
    </g>
  </g>

  <!-- ============ RANGÉE 2 (Y=765) : connecteurs ORANGE ============ -->
  <g id="row2">
    <g transform="translate(302,765) scale(0.377)">
      <circle r="122" stroke="#5a5a5a" stroke-width="2" style="fill:url(#metalRing)"/>
      <circle r="118" fill="none" stroke="#ffffff" stroke-opacity="0.55" stroke-width="1.5"/>
      <circle r="100" stroke="#6a6a6a" stroke-width="1.5" style="fill:url(#metalRing)"/>
      <circle r="86" style="fill:url(#socket)"/>
      <circle r="86" fill="none" stroke="#3a3a3a" stroke-width="2"/>
      <circle r="70" stroke="#a65209" stroke-width="2" style="fill:url(#insertOrange)"/>
      <circle cx="-24" cy="-22" r="11" style="fill:url(#socket)"/><circle cx="-24" cy="-22" r="5" fill="#1a1a1a"/>
      <circle cx="24"  cy="-22" r="11" style="fill:url(#socket)"/><circle cx="24"  cy="-22" r="5" fill="#1a1a1a"/>
      <circle cx="0"   cy="4"   r="11" style="fill:url(#socket)"/><circle cx="0"   cy="4"   r="5" fill="#1a1a1a"/>
      <circle cx="-24" cy="30"  r="11" style="fill:url(#socket)"/><circle cx="-24" cy="30"  r="5" fill="#1a1a1a"/>
      <circle cx="24"  cy="30"  r="11" style="fill:url(#socket)"/><circle cx="24"  cy="30"  r="5" fill="#1a1a1a"/>
    </g>
    <g transform="translate(484,765) scale(0.377)">
      <circle r="122" stroke="#5a5a5a" stroke-width="2" style="fill:url(#metalRing)"/>
      <circle r="118" fill="none" stroke="#ffffff" stroke-opacity="0.55" stroke-width="1.5"/>
      <circle r="100" stroke="#6a6a6a" stroke-width="1.5" style="fill:url(#metalRing)"/>
      <circle r="86" style="fill:url(#socket)"/>
      <circle r="86" fill="none" stroke="#3a3a3a" stroke-width="2"/>
      <circle r="70" stroke="#a65209" stroke-width="2" style="fill:url(#insertOrange)"/>
      <circle cx="-24" cy="-22" r="11" style="fill:url(#socket)"/><circle cx="-24" cy="-22" r="5" fill="#1a1a1a"/>
      <circle cx="24"  cy="-22" r="11" style="fill:url(#socket)"/><circle cx="24"  cy="-22" r="5" fill="#1a1a1a"/>
      <circle cx="0"   cy="4"   r="11" style="fill:url(#socket)"/><circle cx="0"   cy="4"   r="5" fill="#1a1a1a"/>
      <circle cx="-24" cy="30"  r="11" style="fill:url(#socket)"/><circle cx="-24" cy="30"  r="5" fill="#1a1a1a"/>
      <circle cx="24"  cy="30"  r="11" style="fill:url(#socket)"/><circle cx="24"  cy="30"  r="5" fill="#1a1a1a"/>
    </g>
  </g>

  <!-- ============ RANGÉE 3 (Y=915) : connecteurs ORANGE ============ -->
  <g id="row3">
    <g transform="translate(302,915) scale(0.377)">
      <circle r="122" stroke="#5a5a5a" stroke-width="2" style="fill:url(#metalRing)"/>
      <circle r="118" fill="none" stroke="#ffffff" stroke-opacity="0.55" stroke-width="1.5"/>
      <circle r="100" stroke="#6a6a6a" stroke-width="1.5" style="fill:url(#metalRing)"/>
      <circle r="86" style="fill:url(#socket)"/>
      <circle r="86" fill="none" stroke="#3a3a3a" stroke-width="2"/>
      <circle r="70" stroke="#a65209" stroke-width="2" style="fill:url(#insertOrange)"/>
      <circle cx="-24" cy="-22" r="11" style="fill:url(#socket)"/><circle cx="-24" cy="-22" r="5" fill="#1a1a1a"/>
      <circle cx="24"  cy="-22" r="11" style="fill:url(#socket)"/><circle cx="24"  cy="-22" r="5" fill="#1a1a1a"/>
      <circle cx="0"   cy="4"   r="11" style="fill:url(#socket)"/><circle cx="0"   cy="4"   r="5" fill="#1a1a1a"/>
      <circle cx="-24" cy="30"  r="11" style="fill:url(#socket)"/><circle cx="-24" cy="30"  r="5" fill="#1a1a1a"/>
      <circle cx="24"  cy="30"  r="11" style="fill:url(#socket)"/><circle cx="24"  cy="30"  r="5" fill="#1a1a1a"/>
    </g>
    <g transform="translate(484,915) scale(0.377)">
      <circle r="122" stroke="#5a5a5a" stroke-width="2" style="fill:url(#metalRing)"/>
      <circle r="118" fill="none" stroke="#ffffff" stroke-opacity="0.55" stroke-width="1.5"/>
      <circle r="100" stroke="#6a6a6a" stroke-width="1.5" style="fill:url(#metalRing)"/>
      <circle r="86" style="fill:url(#socket)"/>
      <circle r="86" fill="none" stroke="#3a3a3a" stroke-width="2"/>
      <circle r="70" stroke="#a65209" stroke-width="2" style="fill:url(#insertOrange)"/>
      <circle cx="-24" cy="-22" r="11" style="fill:url(#socket)"/><circle cx="-24" cy="-22" r="5" fill="#1a1a1a"/>
      <circle cx="24"  cy="-22" r="11" style="fill:url(#socket)"/><circle cx="24"  cy="-22" r="5" fill="#1a1a1a"/>
      <circle cx="0"   cy="4"   r="11" style="fill:url(#socket)"/><circle cx="0"   cy="4"   r="5" fill="#1a1a1a"/>
      <circle cx="-24" cy="30"  r="11" style="fill:url(#socket)"/><circle cx="-24" cy="30"  r="5" fill="#1a1a1a"/>
      <circle cx="24"  cy="30"  r="11" style="fill:url(#socket)"/><circle cx="24"  cy="30"  r="5" fill="#1a1a1a"/>
    </g>
  </g>

  <!-- ============ EMBOUT FIXATION BAS ============ -->
  <g transform="translate(0,-2)">
    <path d="m 330,1050 c 0,-28 24,-52 58,-52 34,0 58,24 58,52 a 6,6 0 0 1 -6,6 H 336 a 6,6 0 0 1 -6,-6 z" style="fill:url(#mountGrad)"/>
    <circle cx="388" cy="1023" r="21" style="fill:url(#screwHole)"/>
    <circle cx="388" cy="1023" r="21" fill="none" stroke="#2a2a2a" stroke-width="2"/>
    <circle cx="388" cy="1023" r="10" fill="#3a3a3a"/>
  </g>
</svg>
