<?xml version="1.0" encoding="UTF-8" standalone="no"?>
<svg width="800" height="1290" viewBox="0 0 800 1290" version="1.1"
     xmlns="http://www.w3.org/2000/svg">

  <!-- ============ CORPS DU MODULE ============ -->
  <g transform="translate(0,-2.13)">
    <rect x="232" y="245" width="322" height="810" rx="46" ry="46" fill="#f0871f"/>
    <rect x="232" y="245" width="322" height="810" rx="46" ry="46" fill="none"
          stroke="#b95a0c" stroke-width="2"/>
  </g>

  <!-- ============ EMBOUT FIXATION HAUT ============ -->
  <g transform="translate(0,-8)">
    <path d="m 336,250 h 104 a 6,6 0 0 1 6,6 c 0,28 -24,52 -58,52 -34,0 -58,-24 -58,-52 a 6,6 0 0 1 6,-6 z" fill="#3a3a3c"/>
    <circle cx="388" cy="283" r="21" fill="#8a8a8a"/>
    <circle cx="388" cy="283" r="21" fill="none" stroke="#2a2a2a" stroke-width="2"/>
    <circle cx="388" cy="283" r="10" fill="#3a3a3a"/>
  </g>

  <!-- ============ MARQUAGES HAUT ============ -->
  <!-- Logo ifm (encadré) -->
  <g transform="translate(470,300)">
    <rect x="0" y="-26" width="66" height="42" rx="4" fill="none" stroke="#7a3c06" stroke-width="2"/>
    <text x="8" y="8" font-family="Arial, Helvetica, sans-serif" font-weight="800"
          font-size="30px" fill="#7a3c06" letter-spacing="-1">ifm</text>
  </g>
  <!-- Référence AL1100 -->
  <text x="452" y="345" font-family="Arial, Helvetica, sans-serif" font-weight="800"
        font-size="30px" fill="#7a3c06">AL1100</text>
  <text x="452" y="362" font-family="Arial, Helvetica, sans-serif"
        font-size="12px" fill="#7a3c06">Designed by ifm</text>

  <!-- IO-Link -->
  <g transform="translate(258,320)">
    <circle cx="6" cy="-4" r="7" fill="#7a3c06"/>
    <text x="18" y="0" font-family="Arial, Helvetica, sans-serif" font-weight="700"
          font-size="18px" fill="#7a3c06">IO-Link</text>
  </g>

  <!-- Profinet (au-dessus de X21 / X22) -->
  <text x="258" y="410" font-family="Arial, Helvetica, sans-serif" font-weight="600"
        font-size="16px" fill="#7a3c06">Profinet</text>
  <text x="452" y="410" font-family="Arial, Helvetica, sans-serif" font-weight="600"
        font-size="16px" fill="#7a3c06">Profinet</text>

  <!-- ============ LED de statut ============ -->
  <g>
    <circle cx="356" cy="360" r="9" fill="#c8c8c8" stroke="#7a7a7a" stroke-width="1"/>
    <circle cx="390" cy="360" r="9" fill="#c8c8c8" stroke="#7a7a7a" stroke-width="1"/>
    <circle cx="424" cy="360" r="9" fill="#c8c8c8" stroke="#7a7a7a" stroke-width="1"/>
  </g>
  <!-- Libellés LED -->
  <g font-family="Arial, Helvetica, sans-serif" font-size="12px" fill="#7a3c06" text-anchor="middle">
    <text x="356" y="385">RDY</text>
    <text x="390" y="385">BF</text>
    <text x="424" y="385">BF</text>
    <text x="390" y="440">LNK</text>
    <text x="390" y="490">ACT</text>
  </g>

  <!-- ============ MARQUES ") (" ============ -->
  <g fill="none" stroke="#2b2b2b" stroke-width="7" stroke-linecap="round">
    <g transform="translate(357.95,445)"><path d="m 0,-30 q 5.6,12 6.72,24"/><path d="M 6.72,6 Q 5.6,18 0,30"/></g>
    <g transform="translate(428.05,445) scale(-1,1)"><path d="m 0,-30 q 5.6,12 6.72,24"/><path d="M 6.72,6 Q 5.6,18 0,30"/></g>
    <g transform="translate(357.95,616)"><path d="m 0,-30 q 5.6,12 6.72,24"/><path d="M 6.72,6 Q 5.6,18 0,30"/></g>
    <g transform="translate(357.95,765)"><path d="m 0,-30 q 5.6,12 6.72,24"/><path d="M 6.72,6 Q 5.6,18 0,30"/></g>
    <g transform="translate(428.05,765) scale(-1,1)"><path d="m 0,-30 q 5.6,12 6.72,24"/><path d="M 6.72,6 Q 5.6,18 0,30"/></g>
    <g transform="translate(357.95,915)"><path d="m 0,-30 q 5.6,12 6.72,24"/><path d="M 6.72,6 Q 5.6,18 0,30"/></g>
    <g transform="translate(428.05,915) scale(-1,1)"><path d="m 0,-30 q 5.6,12 6.72,24"/><path d="M 6.72,6 Q 5.6,18 0,30"/></g>
  </g>

  <!-- ============ RANGÉE 1 (Y=445) : NOIRS (Profinet) ============ -->
  <g id="row1">
    <g transform="translate(302,445) scale(0.377)">
      <circle r="122" fill="#d0d0d0" stroke="#5a5a5a" stroke-width="2"/>
      <circle r="108" fill="#a8a8a8"/>
      <circle r="100" fill="#8f8f8f" stroke="#6a6a6a" stroke-width="1.5"/>
      <circle r="86"  fill="#6a6a6a" stroke="#3a3a3a" stroke-width="2"/>
      <circle r="70"  fill="#1e1e1e" stroke="#000000" stroke-width="2"/>
      <g fill="#555555">
        <circle cx="-24" cy="-22" r="11"/><circle cx="24" cy="-22" r="11"/>
        <circle cx="0"  cy="4"  r="11"/>
        <circle cx="-24" cy="30" r="11"/><circle cx="24" cy="30" r="11"/>
      </g>
      <g fill="#1a1a1a">
        <circle cx="-24" cy="-22" r="5"/><circle cx="24" cy="-22" r="5"/>
        <circle cx="0"  cy="4"  r="5"/>
        <circle cx="-24" cy="30" r="5"/><circle cx="24" cy="30" r="5"/>
      </g>
    </g>
    <g transform="translate(484,445) scale(0.377)">
      <circle r="122" fill="#d0d0d0" stroke="#5a5a5a" stroke-width="2"/>
      <circle r="108" fill="#a8a8a8"/>
      <circle r="100" fill="#8f8f8f" stroke="#6a6a6a" stroke-width="1.5"/>
      <circle r="86"  fill="#6a6a6a" stroke="#3a3a3a" stroke-width="2"/>
      <circle r="70"  fill="#1e1e1e" stroke="#000000" stroke-width="2"/>
      <g fill="#555555">
        <circle cx="-24" cy="-22" r="11"/><circle cx="24" cy="-22" r="11"/>
        <circle cx="0"  cy="4"  r="11"/>
        <circle cx="-24" cy="30" r="11"/><circle cx="24" cy="30" r="11"/>
      </g>
      <g fill="#1a1a1a">
        <circle cx="-24" cy="-22" r="5"/><circle cx="24" cy="-22" r="5"/>
        <circle cx="0"  cy="4"  r="5"/>
        <circle cx="-24" cy="30" r="5"/><circle cx="24" cy="30" r="5"/>
      </g>
    </g>
  </g>
  <!-- Numéros de port rangée 1 -->
  <g font-family="Arial, Helvetica, sans-serif" font-weight="700" font-size="22px"
     fill="#7a3c06" text-anchor="middle" letter-spacing="3">
    <text x="302" y="510">X21</text>
    <text x="484" y="510">X22</text>
  </g>

  <!-- ============ CONNECTEUR CENTRAL GRIS MÂLE (Y=616) : Power IN ============ -->
  <text x="302" y="560" font-family="Arial, Helvetica, sans-serif" font-weight="600"
        font-size="16px" fill="#7a3c06" text-anchor="middle">Power IN</text>
  <g transform="translate(302,616) scale(0.377)">
    <circle r="122" fill="#d0d0d0" stroke="#5a5a5a" stroke-width="2"/>
    <circle r="108" fill="#a8a8a8"/>
    <circle r="100" fill="#8f8f8f" stroke="#6a6a6a" stroke-width="1.5"/>
    <circle r="86"  fill="#6a6a6a" stroke="#3a3a3a" stroke-width="2"/>
    <circle r="70"  fill="#b0b0b0" stroke="#4a4a4a" stroke-width="2"/>
    <g>
      <g transform="translate(-24,-22)"><circle r="12" fill="#c9a63c" stroke="#6e5413" stroke-width="1"/><circle r="6" fill="#f2d873"/><circle r="2.5" fill="#8a6d1e"/></g>
      <g transform="translate(24,-22)"><circle r="12" fill="#c9a63c" stroke="#6e5413" stroke-width="1"/><circle r="6" fill="#f2d873"/><circle r="2.5" fill="#8a6d1e"/></g>
      <g transform="translate(-24,30)"><circle r="12" fill="#c9a63c" stroke="#6e5413" stroke-width="1"/><circle r="6" fill="#f2d873"/><circle r="2.5" fill="#8a6d1e"/></g>
      <g transform="translate(24,30)"><circle r="12" fill="#c9a63c" stroke="#6e5413" stroke-width="1"/><circle r="6" fill="#f2d873"/><circle r="2.5" fill="#8a6d1e"/></g>
    </g>
  </g>
  <!-- Libellé US + port X31 -->
  <text x="420" y="622" font-family="Arial, Helvetica, sans-serif" font-size="14px" fill="#7a3c06">US</text>
  <text x="302" y="682" font-family="Arial, Helvetica, sans-serif" font-weight="700"
        font-size="22px" fill="#7a3c06" text-anchor="middle" letter-spacing="3">X31</text>

  <!-- ============ RANGÉE 2 (Y=765) : ORANGE ============ -->
  <g id="row2">
    <g transform="translate(302,765) scale(0.377)">
      <circle r="122" fill="#d0d0d0" stroke="#5a5a5a" stroke-width="2"/>
      <circle r="108" fill="#a8a8a8"/>
      <circle r="100" fill="#8f8f8f" stroke="#6a6a6a" stroke-width="1.5"/>
      <circle r="86"  fill="#6a6a6a" stroke="#3a3a3a" stroke-width="2"/>
      <circle r="70"  fill="#f08a24" stroke="#a65209" stroke-width="2"/>
      <g fill="#8f8f8f">
        <circle cx="-24" cy="-22" r="11"/><circle cx="24" cy="-22" r="11"/>
        <circle cx="0"  cy="4"  r="11"/>
        <circle cx="-24" cy="30" r="11"/><circle cx="24" cy="30" r="11"/>
      </g>
      <g fill="#1a1a1a">
        <circle cx="-24" cy="-22" r="5"/><circle cx="24" cy="-22" r="5"/>
        <circle cx="0"  cy="4"  r="5"/>
        <circle cx="-24" cy="30" r="5"/><circle cx="24" cy="30" r="5"/>
      </g>
    </g>
    <g transform="translate(484,765) scale(0.377)">
      <circle r="122" fill="#d0d0d0" stroke="#5a5a5a" stroke-width="2"/>
      <circle r="108" fill="#a8a8a8"/>
      <circle r="100" fill="#8f8f8f" stroke="#6a6a6a" stroke-width="1.5"/>
      <circle r="86"  fill="#6a6a6a" stroke="#3a3a3a" stroke-width="2"/>
      <circle r="70"  fill="#f08a24" stroke="#a65209" stroke-width="2"/>
      <g fill="#8f8f8f">
        <circle cx="-24" cy="-22" r="11"/><circle cx="24" cy="-22" r="11"/>
        <circle cx="0"  cy="4"  r="11"/>
        <circle cx="-24" cy="30" r="11"/><circle cx="24" cy="30" r="11"/>
      </g>
      <g fill="#1a1a1a">
        <circle cx="-24" cy="-22" r="5"/><circle cx="24" cy="-22" r="5"/>
        <circle cx="0"  cy="4"  r="5"/>
        <circle cx="-24" cy="30" r="5"/><circle cx="24" cy="30" r="5"/>
      </g>
    </g>
  </g>
  <!-- DI + ports rangée 2 -->
  <text x="415" y="772" font-family="Arial, Helvetica, sans-serif" font-size="14px" fill="#7a3c06">DI</text>
  <g font-family="Arial, Helvetica, sans-serif" font-weight="700" font-size="22px"
     fill="#7a3c06" text-anchor="middle" letter-spacing="3">
    <text x="302" y="830">X01</text>
    <text x="484" y="830">X02</text>
  </g>

  <!-- ============ RANGÉE 3 (Y=915) : ORANGE ============ -->
  <g id="row3">
    <g transform="translate(302,915) scale(0.377)">
      <circle r="122" fill="#d0d0d0" stroke="#5a5a5a" stroke-width="2"/>
      <circle r="108" fill="#a8a8a8"/>
      <circle r="100" fill="#8f8f8f" stroke="#6a6a6a" stroke-width="1.5"/>
      <circle r="86"  fill="#6a6a6a" stroke="#3a3a3a" stroke-width="2"/>
      <circle r="70"  fill="#f08a24" stroke="#a65209" stroke-width="2"/>
      <g fill="#8f8f8f">
        <circle cx="-24" cy="-22" r="11"/><circle cx="24" cy="-22" r="11"/>
        <circle cx="0"  cy="4"  r="11"/>
        <circle cx="-24" cy="30" r="11"/><circle cx="24" cy="30" r="11"/>
      </g>
      <g fill="#1a1a1a">
        <circle cx="-24" cy="-22" r="5"/><circle cx="24" cy="-22" r="5"/>
        <circle cx="0"  cy="4"  r="5"/>
        <circle cx="-24" cy="30" r="5"/><circle cx="24" cy="30" r="5"/>
      </g>
    </g>
    <g transform="translate(484,915) scale(0.377)">
      <circle r="122" fill="#d0d0d0" stroke="#5a5a5a" stroke-width="2"/>
      <circle r="108" fill="#a8a8a8"/>
      <circle r="100" fill="#8f8f8f" stroke="#6a6a6a" stroke-width="1.5"/>
      <circle r="86"  fill="#6a6a6a" stroke="#3a3a3a" stroke-width="2"/>
      <circle r="70"  fill="#f08a24" stroke="#a65209" stroke-width="2"/>
      <g fill="#8f8f8f">
        <circle cx="-24" cy="-22" r="11"/><circle cx="24" cy="-22" r="11"/>
        <circle cx="0"  cy="4"  r="11"/>
        <circle cx="-24" cy="30" r="11"/><circle cx="24" cy="30" r="11"/>
      </g>
      <g fill="#1a1a1a">
        <circle cx="-24" cy="-22" r="5"/><circle cx="24" cy="-22" r="5"/>
        <circle cx="0"  cy="4"  r="5"/>
        <circle cx="-24" cy="30" r="5"/><circle cx="24" cy="30" r="5"/>
      </g>
    </g>
  </g>
  <!-- DI + ports rangée 3 -->
  <text x="415" y="922" font-family="Arial, Helvetica, sans-serif" font-size="14px" fill="#7a3c06">DI</text>
  <g font-family="Arial, Helvetica, sans-serif" font-weight="700" font-size="22px"
     fill="#7a3c06" text-anchor="middle" letter-spacing="3">
    <text x="302" y="980">X03</text>
    <text x="484" y="980">X04</text>
  </g>

  <!-- ============ EMBOUT FIXATION BAS ============ -->
  <g transform="translate(0,-2)">
    <path d="m 330,1050 c 0,-28 24,-52 58,-52 34,0 58,24 58,52 a 6,6 0 0 1 -6,6 H 336 a 6,6 0 0 1 -6,-6 z" fill="#3a3a3c"/>
    <circle cx="388" cy="1023" r="21" fill="#8a8a8a"/>
    <circle cx="388" cy="1023" r="21" fill="none" stroke="#2a2a2a" stroke-width="2"/>
    <circle cx="388" cy="1023" r="10" fill="#3a3a3a"/>
  </g>
</svg>
